PathFileType        4      (X/Y/Z)      C:\Users\mrr\Desktop\moco_PFJCF\transformed_exp_static.trc         
DataRate	CameraRate	NumFrames	NumMarkers	Units	OrigDataRate	OrigDataStartFrame	OrigNumFrames
200.0	200.0	4	64	mm	200.0	82	652
Frame#	Time	R.Shoulder			L.Shoulder			R.Clavicle			L.Clavicle			R.Biceps			R.Elbow			R.MElbow			R.Forearm			R.Wrist			L.Biceps			L.Elbow			L.MElbow			L.Forearm			L.Wrist			R.ASIS			L.ASIS			R.PSIS			S2			L.PSIS			R.TH1			R.TH2			R.TH3			R.Knee			R.MKnee			R.SH1			R.SH2			R.SH3			R.SH4			R.Ankle			R.MAnkle			R.Heel			R.MT5			R.Toe			L.TH1			L.TH2			L.TH3			L.TH4			L.Knee			L.MKnee			L.SH1			L.SH2			L.SH3			L.Ankle			L.MAnkle			L.Heel			L.MT5			L.Toe			R_HJC			L_HJC			L.HeelGround			L.ToeGround			L.MT5Ground			L.AnkleJoint			L.AnkleJointGround			L.KneeJoint			R.HeelGround			R.ToeGround			R.MT5Ground			R.AnkleJoint			R.AnkleJointGround			R.KneeJoint			MidASIS			MidPSIS			MidClavicle			
		X1	Y1	Z1	X2	Y2	Z2	X3	Y3	Z3	X4	Y4	Z4	X5	Y5	Z5	X6	Y6	Z6	X7	Y7	Z7	X8	Y8	Z8	X9	Y9	Z9	X10	Y10	Z10	X11	Y11	Z11	X12	Y12	Z12	X13	Y13	Z13	X14	Y14	Z14	X15	Y15	Z15	X16	Y16	Z16	X17	Y17	Z17	X18	Y18	Z18	X19	Y19	Z19	X20	Y20	Z20	X21	Y21	Z21	X22	Y22	Z22	X23	Y23	Z23	X24	Y24	Z24	X25	Y25	Z25	X26	Y26	Z26	X27	Y27	Z27	X28	Y28	Z28	X29	Y29	Z29	X30	Y30	Z30	X31	Y31	Z31	X32	Y32	Z32	X33	Y33	Z33	X34	Y34	Z34	X35	Y35	Z35	X36	Y36	Z36	X37	Y37	Z37	X38	Y38	Z38	X39	Y39	Z39	X40	Y40	Z40	X41	Y41	Z41	X42	Y42	Z42	X43	Y43	Z43	X44	Y44	Z44	X45	Y45	Z45	X46	Y46	Z46	X47	Y47	Z47	X48	Y48	Z48	X49	Y49	Z49	X50	Y50	Z50	X51	Y51	Z51	X52	Y52	Z52	X53	Y53	Z53	X54	Y54	Z54	X55	Y55	Z55	X56	Y56	Z56	X57	Y57	Z57	X58	Y58	Z58	X59	Y59	Z59	X60	Y60	Z60	X61	Y61	Z61	X62	Y62	Z62	X63	Y63	Z63	X64	Y64	Z64	
82	0.405	-255.05299999999997	1368.795	-410.535	-255.62599999999995	1386.071	-740.566	-208.44199999999998	1343.995	-556.648	-205.05299999999997	1345.793	-597.074	-190.09199999999998	1190.242	-349.859	-66.75799999999998	1129.546	-301.222	-82.06499999999997	1098.616	-357.888	41.35900000000002	1129.039	-366.87	164.90900000000002	1144.401	-329.377	-153.66199999999995	1238.405	-810.488	-85.68199999999995	1130.68	-840.454	-95.27499999999996	1109.253	-774.004	6.508000000000051	1099.04	-833.342	144.25900000000004	1158.143	-821.666	-129.19799999999998	959.486	-440.578	-136.34699999999995	955.831	-707.245	-307.36199999999997	952.181	-522.101	-310.97999999999996	941.818	-563.194	-313.21899999999994	958.252	-608.995	-180.83899999999997	733.664	-369.769	-272.211	723.377	-421.262	-277.592	593.902	-412.991	-239.19899999999998	481.883	-379.532	-196.40199999999996	461.312	-494.373	-227.72799999999998	404.319	-357.435	-247.67399999999998	302.006	-317.791	-305.81	405.283	-384.342	-321.715	288.161	-356.622	-269.768	98.971	-318.473	-249.27899999999997	101.884	-397.275	-328.745	55.826	-363.365	-164.02299999999997	42.771	-276.217	-111.68999999999998	64.925	-335.916	-169.56199999999995	777.417	-759.102	-174.49699999999996	645.366	-748.989	-274.52399999999994	793.486	-751.896	-288.4839999999999	658.996	-725.79	-250.44299999999996	493.772	-742.717	-237.65199999999996	474.365	-617.36	-220.67499999999995	399.751	-738.682	-312.83699999999993	415.529	-746.333	-322.2579999999999	300.461	-768.478	-282.7219999999999	104.772	-771.151	-268.23599999999993	102.119	-691.788	-346.4289999999999	52.403	-724.037	-179.79999999999995	43.213	-806.314	-126.73399999999995	62.469	-749.872	-174.91599999999997	854.658	-469.963	-192.31699999999998	863.421	-669.867	-346.4289999999999	0.0	-724.037	-126.73399999999995	0.0	-749.872	-179.79999999999995	0.0	-806.314	-275.4789999999999	103.44550000000001	-731.4694999999999	-275.4789999999999	0.0	-731.4694999999999	-244.04749999999999	484.0685	-680.0385	-328.745	0.0	-363.365	-111.68999999999998	0.0	-335.916	-164.02299999999997	0.0	-276.217	-259.5235	100.42750000000001	-357.874	-259.5235	0.0	-357.874	-217.80049999999997	471.59749999999997	-436.9525	-132.77249999999998	957.6585	-573.9114999999999	-310.29049999999995	955.2165	-565.548	-206.74749999999997	1344.8939999999998	-576.861	
83	0.41	-254.99099999999999	1368.22	-410.171	-255.58299999999994	1385.861	-740.571	-208.43599999999998	1343.629	-556.426	-205.20199999999997	1345.382	-596.823	-190.16399999999996	1189.784	-349.866	-66.82099999999998	1129.16	-301.308	-82.40599999999998	1097.971	-357.193	41.32000000000002	1128.999	-366.908	164.82600000000002	1144.261	-329.358	-153.69299999999996	1238.237	-810.383	-85.68499999999995	1130.567	-840.495	-95.52499999999996	1108.607	-774.162	6.4970000000000505	1098.975	-833.321	144.24700000000007	1157.92	-821.479	-129.29199999999997	959.31	-440.488	-136.38999999999993	955.823	-707.297	-307.4119999999999	952.279	-522.02	-311.04799999999994	941.791	-563.17	-318.08599999999996	961.65	-618.34	-180.97099999999998	733.298	-369.711	-272.244	723.093	-421.137	-277.616	593.613	-412.921	-239.21099999999998	481.441	-379.457	-196.44899999999998	461.081	-494.45	-227.68199999999996	403.864	-357.22	-247.64599999999996	301.459	-317.674	-305.756	404.938	-383.936	-321.7	287.872	-356.374	-269.715	98.753	-318.431	-252.90799999999996	96.133	-390.221	-328.873	55.404	-363.026	-163.96999999999997	42.45	-275.882	-111.69699999999999	64.569	-335.615	-169.56299999999993	777.248	-759.109	-174.52899999999994	645.266	-749.048	-274.53899999999993	793.202	-751.575	-288.50199999999995	658.796	-725.654	-250.50099999999995	493.716	-742.744	-237.68899999999996	474.146	-617.279	-220.75599999999994	399.696	-738.791	-312.8759999999999	415.304	-746.178	-322.24699999999996	300.295	-768.357	-282.72499999999997	104.741	-771.134	-268.26599999999996	101.809	-691.762	-346.43499999999995	52.292	-724.127	-179.82199999999995	43.16	-806.323	-126.72599999999996	62.241	-749.842	-177.21499999999997	854.618	-471.678	-193.30499999999998	864.045	-671.661	-346.43499999999995	0.0	-724.127	-126.72599999999996	0.0	-749.842	-179.82199999999995	0.0	-806.323	-275.49549999999994	103.275	-731.448	-275.49549999999994	0.0	-731.448	-244.09499999999997	483.93100000000004	-680.0115000000001	-328.873	0.0	-363.026	-111.69699999999999	0.0	-335.615	-163.96999999999997	0.0	-275.882	-261.31149999999997	97.443	-354.326	-261.31149999999997	0.0	-354.326	-217.82999999999998	471.26099999999997	-436.95349999999996	-132.84099999999998	957.5664999999999	-573.8925	-312.74899999999997	956.9645	-570.1800000000001	-206.819	1344.5055	-576.6245	
84	0.415	-255.24499999999998	1367.992	-410.181	-255.62899999999993	1385.773	-740.602	-208.56499999999997	1343.135	-556.279	-205.18299999999996	1345.162	-596.529	-190.16799999999998	1189.428	-349.749	-66.76699999999998	1128.634	-301.064	-82.34399999999997	1097.85	-357.358	41.30000000000002	1128.963	-366.932	164.82100000000003	1144.04	-329.122	-153.71399999999994	1238.188	-810.412	-85.70199999999994	1130.533	-840.529	-95.51999999999995	1108.376	-774.324	6.498000000000051	1098.945	-833.341	144.20900000000006	1157.693	-821.135	-129.34099999999998	959.136	-440.415	-136.43599999999995	955.718	-707.276	-307.35499999999996	952.219	-521.688	-310.9669999999999	940.57	-562.82	-312.98799999999994	957.501	-607.721	-180.98799999999997	732.964	-369.674	-272.246	722.848	-421.023	-277.558	593.411	-412.696	-239.14299999999997	480.974	-379.253	-196.49799999999996	460.92	-494.501	-227.79299999999998	403.553	-357.186	-247.82399999999998	300.874	-317.74	-305.825	404.686	-383.667	-321.598	287.692	-356.011	-269.938	98.031	-318.218	-253.05199999999996	95.767	-390.023	-328.796	55.06	-362.176	-164.04699999999997	42.014	-275.751	-111.74399999999999	64.271	-335.452	-169.86699999999993	777.714	-761.067	-174.54699999999994	645.243	-749.054	-274.6309999999999	793.01	-751.44	-288.53499999999997	658.704	-725.817	-250.53699999999995	493.649	-742.78	-237.70199999999997	474.104	-617.268	-220.71299999999994	399.647	-738.924	-312.86199999999997	415.234	-746.204	-322.25299999999993	300.23	-768.34	-282.7099999999999	104.704	-771.107	-268.3949999999999	101.325	-691.812	-346.42199999999997	52.226	-724.165	-179.85199999999995	43.07	-806.439	-126.71299999999995	62.05	-749.807	-174.51999999999998	854.317	-469.637	-192.25199999999998	863.064	-669.513	-346.42199999999997	0.0	-724.165	-126.71299999999995	0.0	-749.807	-179.85199999999995	0.0	-806.439	-275.55249999999995	103.0145	-731.4594999999999	-275.55249999999995	0.0	-731.4594999999999	-244.1195	483.87649999999996	-680.024	-328.796	0.0	-362.176	-111.74399999999999	0.0	-335.452	-164.04699999999997	0.0	-275.751	-261.495	96.899	-354.1205	-261.495	0.0	-354.1205	-217.82049999999995	470.947	-436.87699999999995	-132.8885	957.4269999999999	-573.8455	-310.1715	954.86	-564.7045	-206.87399999999997	1344.1485	-576.404	
85	0.42	-255.28299999999996	1367.923	-410.089	-255.75899999999993	1385.559	-740.512	-208.54699999999997	1342.885	-556.106	-205.21499999999997	1345.105	-596.49	-190.05999999999997	1189.066	-349.57	-66.66499999999999	1128.299	-301.078	-82.36999999999998	1097.769	-357.317	41.28000000000002	1128.981	-366.945	164.70300000000003	1143.745	-328.906	-153.72599999999994	1238.214	-810.406	-85.71399999999994	1130.556	-840.56	-95.61299999999996	1108.102	-774.254	6.514000000000051	1098.989	-833.363	144.17200000000005	1157.682	-821.006	-129.37499999999997	958.913	-440.324	-136.41699999999994	955.766	-707.297	-307.3809999999999	952.288	-521.658	-310.7579999999999	940.405	-562.888	-313.17499999999995	957.506	-607.677	-181.04699999999997	732.771	-369.679	-272.266	722.443	-420.827	-277.587	593.21	-412.664	-239.12999999999997	480.589	-379.081	-196.52199999999996	460.817	-494.528	-227.86599999999999	402.943	-357.156	-247.70099999999996	300.651	-317.561	-305.755	404.543	-383.349	-321.571	287.492	-355.733	-269.449	97.548	-318.086	-253.15899999999996	95.545	-389.9	-328.715	54.907	-361.949	-164.08199999999997	41.714	-275.658	-111.69999999999999	64.07	-335.176	-169.76799999999994	777.533	-759.566	-174.54199999999994	645.207	-749.061	-274.69599999999997	793.021	-751.553	-288.6429999999999	658.683	-725.688	-250.55499999999995	493.642	-742.776	-237.93199999999996	473.844	-617.412	-220.72499999999994	399.645	-738.907	-312.87699999999995	415.24	-746.18	-322.29299999999995	300.081	-768.145	-282.48299999999995	104.387	-770.824	-268.42999999999995	100.997	-691.818	-346.42599999999993	52.193	-724.183	-179.84499999999994	43.058	-806.433	-126.71499999999996	61.912	-749.704	-174.55599999999998	854.161	-469.704	-192.27299999999997	863.086	-669.573	-346.42599999999993	0.0	-724.183	-126.71499999999996	0.0	-749.704	-179.84499999999994	0.0	-806.433	-275.45649999999995	102.69200000000001	-731.3209999999999	-275.45649999999995	0.0	-731.3209999999999	-244.24349999999995	483.743	-680.094	-328.715	0.0	-361.949	-111.69999999999999	0.0	-335.176	-164.08199999999997	0.0	-275.658	-261.304	96.54650000000001	-353.993	-261.304	0.0	-353.993	-217.82599999999996	470.703	-436.8045	-132.896	957.3395	-573.8105	-310.27799999999996	954.8969999999999	-564.6675	-206.88099999999997	1343.995	-576.298	
